<svg width="46" height="51" viewBox="0 0 46 51" fill="none" xmlns="http://www.w3.org/2000/svg">
<g id="Logo">
<g id="Vector 1">
<path d="M27.0073 9.03132C20.4644 8.76061 8.37829 9.03132 8.37829 9.03132V23.1087L1.10845 22.838L1.01758 1H27.2799C34.6406 1 40.7291 8.30941 40.7291 15.1676C40.7291 22.0258 38.2673 25.6173 33.8227 28.884L45.0001 50H36.0946L25.0989 30.3278H14.1033V22.838H27.0073C30.7331 22.838 32.9929 19.4715 32.914 15.8895C32.8425 12.6456 30.3696 9.17044 27.0073 9.03132Z" fill="#0A3670"/>
<path d="M27.0073 22.838C21.1005 22.838 14.1033 22.838 14.1033 22.838M27.0073 22.838C30.7331 22.838 32.9929 19.4715 32.914 15.8895C32.8425 12.6456 30.3696 9.17044 27.0073 9.03132C20.4644 8.76061 8.37829 9.03132 8.37829 9.03132V23.1087L1.10845 22.838L1.01758 1M27.0073 22.838H14.1033M14.1033 22.838V30.3278H25.0989L36.0946 50H45.0001L33.8227 28.884C38.2673 25.6173 40.7291 22.0258 40.7291 15.1676C40.7291 8.30941 34.6406 1 27.2799 1M27.2799 1C19.9192 1 1.01758 1 1.01758 1M27.2799 1H1.01758" stroke="#D2E4FB"/>
</g>
<path id="Vector 3" d="M24.0992 39.6225L8.37319 39.7177L8.37319 9.05037C8.37319 6.28193 7.16272 1 1 1L1.03662 45.3978H27.0071L24.0992 39.6225Z" fill="#D2E4FB" stroke="#D2E4FB"/>
</g>
</svg>
