<svg fill="none" xmlns="http://www.w3.org/2000/svg">
<g id="logo">
<g id="Logo">
<g id="Vector 1">
<path d="M28.0073 9.03132C21.4644 8.76061 9.37829 9.03132 9.37829 9.03132V23.1087L2.10845 22.838L2.01758 1H28.2799C35.6406 1 41.7291 8.30941 41.7291 15.1676C41.7291 22.0258 39.2673 25.6173 34.8227 28.884L46.0001 50H37.0946L26.0989 30.3278H15.1033V22.838H28.0073C31.7331 22.838 33.9929 19.4715 33.914 15.8895C33.8425 12.6456 31.3696 9.17044 28.0073 9.03132Z" fill="#0A3670"/>
<path d="M28.0073 22.838C22.1005 22.838 15.1033 22.838 15.1033 22.838M28.0073 22.838C31.7331 22.838 33.9929 19.4715 33.914 15.8895C33.8425 12.6456 31.3696 9.17044 28.0073 9.03132C21.4644 8.76061 9.37829 9.03132 9.37829 9.03132V23.1087L2.10845 22.838L2.01758 1M28.0073 22.838H15.1033M15.1033 22.838V30.3278H26.0989L37.0946 50H46.0001L34.8227 28.884C39.2673 25.6173 41.7291 22.0258 41.7291 15.1676C41.7291 8.30941 35.6406 1 28.2799 1M28.2799 1C20.9192 1 2.01758 1 2.01758 1M28.2799 1H2.01758" stroke="#D2E4FB"/>
</g>
<path id="Vector 3" d="M25.0992 39.6225L9.37319 39.7177L9.37319 9.05037C9.37319 6.28193 8.16272 1 2 1L2.03662 45.3978H28.0071L25.0992 39.6225Z" fill="#D2E4FB" stroke="#D2E4FB"/>
</g>
</g>
</svg>
